<!DOCTYPE svg PUBLIC "-//W3C//DTD SVG 20010904//EN" "http://www.w3.org/TR/2001/REC-SVG-20010904/DTD/svg10.dtd">
<svg version="1.0" xmlns="http://www.w3.org/2000/svg" width="1540px" height="376px" viewBox="0 0 15400 3760" preserveAspectRatio="xMidYMid meet">
<g id="layer101" fill="#d07404" stroke="none">
 <path d="M7830 3183 c-275 -49 -575 -203 -845 -435 -60 -52 -207 -195 -325 -318 -118 -123 -258 -261 -310 -308 -191 -170 -375 -288 -528 -338 -75 -25 -102 -29 -202 -29 -125 0 -173 11 -284 67 -140 70 -316 236 -470 443 -101 135 -105 142 -211 309 -33 52 -63 92 -67 90 -4 -3 -6 1 -3 8 7 20 -12 45 -25 32 -11 -11 14 -74 31 -74 5 0 9 -6 9 -14 0 -8 16 -37 35 -66 19 -29 35 -54 35 -57 0 -13 156 -231 235 -328 317 -391 606 -516 935 -406 242 82 519 296 868 673 366 396 680 607 1047 703 139 36 358 45 505 20 230 -38 480 -158 697 -333 33 -28 64 -47 68 -44 4 4 5 0 3 -8 -2 -8 2 -14 7 -15 6 0 20 -10 33 -23 12 -12 27 -20 33 -16 10 6 -127 144 -143 144 -4 0 -13 7 -21 15 -8 8 -59 44 -113 80 -172 116 -369 197 -558 230 -112 19 -323 18 -436 -2z"/>
 <path d="M4447 2865 c58 -107 91 -154 101 -142 8 9 1 27 -25 70 -19 31 -39 57 -43 57 -5 0 -8 6 -6 13 1 6 1 8 -2 4 -2 -4 -11 -2 -20 5 -13 11 -14 10 -5 -7z"/>
 <path d="M9104 2709 c-8 -13 13 -29 40 -29 18 0 18 1 1 20 -21 23 -31 25 -41 9z"/>
 <path d="M9148 2650 c21 -23 68 -24 49 -2 -7 9 -13 10 -15 3 -2 -6 -8 -11 -13 -11 -4 0 -6 6 -3 13 2 7 -4 13 -16 14 -19 2 -19 1 -2 -17z"/>
 </g>
<g id="layer102" fill="#d57903" stroke="none">
 <path d="M3397 3748 c-222 -27 -425 -163 -687 -458 -225 -254 -395 -406 -577 -517 -131 -79 -311 -148 -453 -174 -106 -19 -316 -16 -420 5 -327 69 -646 260 -949 566 -98 99 -257 287 -268 316 -7 18 -33 18 -33 0 0 -33 169 -233 322 -382 616 -600 1272 -713 1874 -322 179 116 292 220 505 460 311 351 527 484 780 480 182 -2 344 -88 529 -278 124 -127 171 -182 205 -241 11 -18 23 -33 26 -33 4 0 10 -8 13 -17 9 -29 54 -75 66 -68 10 6 -21 61 -45 77 -5 4 -7 8 -2 8 7 0 -36 59 -132 180 -47 59 -184 196 -243 243 -149 119 -339 176 -511 155z"/>
 <path d="M4325 3071 c-3 -5 2 -16 10 -24 8 -9 15 -20 15 -25 0 -5 13 -27 28 -48 16 -21 32 -48 36 -59 6 -16 9 -17 17 -5 8 11 9 10 4 -7 -4 -14 -2 -23 5 -23 6 0 8 -5 4 -12 -4 -6 -3 -8 4 -4 6 3 13 2 17 -4 3 -5 12 -10 18 -10 8 0 8 3 2 8 -6 4 -17 21 -25 37 -8 17 -19 33 -25 37 -5 4 -10 11 -11 15 -1 17 -28 63 -36 63 -4 0 -8 6 -8 13 0 14 -33 57 -43 57 -3 0 -8 -4 -12 -9z"/>
 <path d="M4547 2723 c-4 -3 -7 -13 -7 -21 0 -12 3 -12 15 -2 8 7 15 16 15 21 0 11 -14 12 -23 2z"/>
 <path d="M9116 2679 c3 -5 12 -9 20 -9 10 0 12 -5 8 -12 -5 -8 0 -7 11 2 17 14 18 13 12 -2 -3 -10 -2 -18 4 -18 25 0 1 35 -28 41 -18 3 -30 2 -27 -2z"/>
 <path d="M9182 2633 c-8 -3 -1 -16 20 -38 17 -19 36 -31 41 -28 6 3 7 1 3 -5 -6 -11 22 -48 96 -124 21 -21 35 -38 32 -38 -2 0 25 -38 60 -85 85 -111 235 -339 324 -490 225 -383 571 -643 1002 -754 168 -42 294 -54 525 -48 263 6 435 36 748 131 175 53 308 69 517 63 273 -8 527 -59 866 -172 532 -179 1237 -547 1812 -946 78 -54 146 -99 151 -99 36 0 3 31 -121 118 -277 192 -604 391 -912 554 -688 363 -1288 557 -1781 575 -248 9 -351 -6 -655 -95 -246 -72 -457 -103 -695 -103 -309 0 -545 56 -802 191 -191 100 -362 241 -495 409 -60 74 -138 187 -138 198 0 3 -34 61 -76 129 -131 214 -323 473 -431 582 -24 24 -43 48 -43 52 0 13 -32 28 -48 23z"/>
 </g>

</svg>